# Blender v2.93.4 OBJ File: 'Terrain.blend'
# www.blender.org
mtllib BuildZone.mtl
o BuildZone1_Cube.001
v -30.000000 0.000000 47.000000
v -29.900000 0.100000 46.900002
v -30.000000 0.000000 -1.000000
v -29.900000 0.100000 -0.900000
v 1.000000 0.000000 47.000000
v 0.900000 0.100000 46.900002
v 1.000000 0.000000 -1.000000
v 0.900000 0.100000 -0.900000
v -29.900000 0.200000 46.900002
v -29.900000 0.200000 -0.900000
v 0.900000 0.200000 -0.900000
v 0.900000 0.200000 46.900002
v -30.000000 0.300000 47.000000
v -30.000000 0.300000 -1.000000
v 1.000000 0.300000 -1.000000
v 1.000000 0.300000 47.000000
v -29.799999 0.400000 46.799999
v -29.799999 0.400000 -0.800000
v 0.800000 0.400000 -0.800000
v 0.800000 0.400000 46.799999
v -29.493999 0.300000 46.323997
v -29.493999 0.300000 -0.323999
v 0.494000 0.300000 -0.323999
v 0.494000 0.300000 46.323997
vt 0.013672 0.648438
vt 0.013672 0.648438
vt 0.013672 0.648438
vt 0.013672 0.648438
vt 0.013672 0.648438
vt 0.013672 0.648438
vt 0.013672 0.648438
vt 0.013672 0.648438
vt 0.013672 0.648438
vt 0.013672 0.648438
vt 0.013672 0.648438
vt 0.013672 0.648438
vt 0.013672 0.648438
vt 0.013672 0.648438
vt 0.013672 0.648438
vt 0.013672 0.648438
vt 0.013672 0.648438
vt 0.013672 0.648438
vt 0.013672 0.648438
vt 0.013672 0.648438
vt 0.013672 0.648438
vt 0.013672 0.648438
vt 0.138672 0.656250
vt 0.138672 0.656250
vt 0.138672 0.656250
vt 0.138672 0.656250
vt 0.013672 0.648438
vt 0.013672 0.648438
vt 0.528320 0.669922
vt 0.528320 0.669922
vt 0.528320 0.669922
vt 0.528320 0.669922
vt 0.528320 0.669922
vt 0.528320 0.669922
vt 0.528320 0.669922
vt 0.528320 0.669922
vn -0.7071 0.7071 0.0000
vn 0.0000 0.7071 -0.7071
vn 0.7071 0.7071 0.0000
vn 0.0000 0.7071 0.7071
vn 0.0000 -1.0000 0.0000
vn 0.0000 -0.7071 0.7071
vn 0.0000 0.8944 0.4472
vn 0.0000 -0.7071 -0.7071
vn 0.7071 -0.7071 0.0000
vn -0.7071 -0.7071 0.0000
vn 0.0000 0.9786 -0.2056
vn 0.0000 0.8944 -0.4472
vn 0.4472 0.8944 0.0000
vn -0.4472 0.8944 0.0000
vn 0.0000 1.0000 0.0000
vn 0.0000 0.9786 0.2056
vn -0.3106 0.9505 0.0000
vn 0.3106 0.9505 0.0000
vn 1.0000 0.0000 0.0000
vn -1.0000 0.0000 0.0000
vn 0.0000 0.0000 1.0000
vn 0.0000 0.0000 -1.0000
usemtl PaletteClassic
s off
f 1/1/1 2/2/1 4/3/1 3/4/1
f 3/4/2 4/3/2 8/5/2 7/6/2
f 7/6/3 8/5/3 6/7/3 5/8/3
f 5/8/4 6/7/4 2/2/4 1/1/4
f 3/4/5 7/6/5 5/8/5 1/1/5
f 9/9/6 12/10/6 16/11/6 13/12/6
f 13/12/7 16/11/7 20/13/7 17/14/7
f 11/15/8 10/16/8 14/17/8 15/18/8
f 12/10/9 11/15/9 15/18/9 16/11/9
f 10/16/10 9/9/10 13/12/10 14/17/10
f 17/14/11 20/13/11 24/19/11 21/20/11
f 15/18/12 14/17/12 18/21/12 19/22/12
f 16/11/13 15/18/13 19/22/13 20/13/13
f 14/17/14 13/12/14 17/14/14 18/21/14
f 23/23/15 22/24/15 21/25/15 24/26/15
f 19/22/16 18/21/16 22/27/16 23/28/16
f 20/13/17 19/22/17 23/28/17 24/19/17
f 18/21/18 17/14/18 21/20/18 22/27/18
usemtl PaletteGlow
f 6/29/19 8/30/19 11/31/19 12/32/19
f 4/33/20 2/34/20 9/35/20 10/36/20
f 2/34/21 6/29/21 12/32/21 9/35/21
f 8/30/22 4/33/22 10/36/22 11/31/22
