# Blender v2.91.0 OBJ File: ''
# www.blender.org
mtllib Door Block.mtl
o Cube_Cube.001
v -12.000000 0.000000 1.000000
v -12.000000 27.299999 1.000000
v -12.000000 0.000000 -1.000000
v -12.000000 27.299999 -1.000000
v 12.000000 0.000000 1.000000
v 12.000000 27.299999 1.000000
v 12.000000 0.000000 -1.000000
v 12.000000 27.299999 -1.000000
v -14.000000 0.000000 -1.000000
v -14.000000 0.000000 1.000000
v -14.000000 29.299999 1.000000
v -14.000000 29.299999 -1.000000
v 14.000000 29.299999 -1.000000
v 14.000000 0.000000 -1.000000
v 14.000000 0.000000 1.000000
v 14.000000 29.299999 1.000000
v 13.717373 0.000000 -1.436038
v 12.307568 0.000000 -1.463961
v 12.307568 27.607567 -1.463961
v 13.717373 29.017372 -1.436038
v 12.307568 27.607567 1.463961
v 13.717373 29.017372 1.436038
v -13.717373 29.017372 1.436038
v -12.307568 27.607567 1.463961
v -12.307568 0.000000 1.463961
v -13.717373 0.000000 1.436038
v -13.717373 0.000000 -1.436038
v -12.307568 0.000000 -1.463961
v 12.307568 0.000000 1.463961
v 13.717373 0.000000 1.436038
v -12.307568 27.607567 -1.463961
v -13.717373 29.017372 -1.436038
v 13.260246 0.000000 -1.572380
v 12.738210 0.000000 -1.579664
v 12.738379 28.038378 -1.579709
v 13.260044 28.560043 -1.572440
v 12.738379 28.038378 1.579709
v 13.260044 28.560043 1.572440
v -13.260044 28.560043 1.572440
v -12.738379 28.038378 1.579709
v -12.738210 0.000000 1.579664
v -13.260246 0.000000 1.572380
v -13.260246 0.000000 -1.572380
v -12.738210 0.000000 -1.579664
v 12.738210 0.000000 1.579664
v 13.260246 0.000000 1.572380
v -12.738379 28.038378 -1.579709
v -13.260044 28.560043 -1.572440
v -12.738210 0.000000 1.150951
v -13.260246 0.000000 1.145644
v -13.260044 28.560043 1.145688
v -12.738379 28.038378 1.150984
v -12.738379 28.038378 -1.150984
v -13.260044 28.560043 -1.145688
v -13.260246 0.000000 -1.145644
v -12.738210 0.000000 -1.150951
v 12.738379 28.038378 -1.150984
v 13.260044 28.560043 -1.145688
v 12.738210 0.000000 1.150951
v 13.260246 0.000000 1.145644
v 13.260246 0.000000 -1.145644
v 12.738210 0.000000 -1.150951
v 12.738379 28.038378 1.150984
v 13.260044 28.560043 1.145688
vt 0.017500 0.717500
vt 0.017500 0.717500
vt 0.017500 0.717500
vt 0.017500 0.717500
vt 0.017500 0.717500
vt 0.017500 0.717500
vt 0.017500 0.717500
vt 0.017500 0.717500
vt 0.017500 0.717500
vt 0.017500 0.717500
vt 0.017500 0.717500
vt 0.017500 0.717500
vt 0.017500 0.717500
vt 0.017500 0.717500
vt 0.017500 0.717500
vt 0.017500 0.717500
vt 0.017500 0.717500
vt 0.017500 0.717500
vt 0.017500 0.717500
vt 0.017500 0.717500
vt 0.017500 0.717500
vt 0.017500 0.717500
vt 0.017500 0.717500
vt 0.017500 0.717500
vt 0.017500 0.717500
vt 0.017500 0.717500
vt 0.017500 0.717500
vt 0.017500 0.717500
vt 0.017500 0.717500
vt 0.017500 0.717500
vt 0.017500 0.717500
vt 0.017500 0.717500
vt 0.017500 0.717500
vt 0.017500 0.717500
vt 0.017500 0.717500
vt 0.017500 0.717500
vt 0.017500 0.717500
vt 0.017500 0.717500
vt 0.017500 0.717500
vt 0.017500 0.717500
vt 0.017500 0.717500
vt 0.017500 0.717500
vt 0.017500 0.717500
vt 0.017500 0.717500
vt 0.017500 0.717500
vt 0.017500 0.717500
vt 0.017500 0.717500
vt 0.017500 0.717500
vt 0.017500 0.717500
vt 0.017500 0.717500
vt 0.017500 0.717500
vt 0.017500 0.717500
vt 0.017500 0.717500
vt 0.017500 0.717500
vt 0.017500 0.717500
vt 0.017500 0.717500
vt 0.017500 0.717500
vt 0.025000 0.937500
vt 0.025000 0.937500
vt 0.025000 0.937500
vt 0.025000 0.937500
vt 0.017500 0.717500
vt 0.017500 0.717500
vt 0.017500 0.717500
vt 0.017500 0.717500
vt 0.017500 0.717500
vt 0.017500 0.717500
vt 0.017500 0.717500
vt 0.025000 0.937500
vt 0.025000 0.937500
vt 0.025000 0.937500
vt 0.025000 0.937500
vt 0.025000 0.937500
vt 0.025000 0.937500
vt 0.025000 0.937500
vt 0.025000 0.937500
vt 0.025000 0.937500
vt 0.025000 0.937500
vt 0.025000 0.937500
vt 0.025000 0.937500
vt 0.025000 0.937500
vt 0.025000 0.937500
vt 0.025000 0.937500
vt 0.025000 0.937500
vt 0.025000 0.937500
vt 0.025000 0.937500
vt 0.025000 0.937500
vt 0.025000 0.937500
vt 0.025000 0.937500
vt 0.025000 0.937500
vt 0.025000 0.937500
vt 0.025000 0.937500
vt 0.025000 0.937500
vt 0.025000 0.937500
vt 0.025000 0.937500
vt 0.025000 0.937500
vt 0.390000 0.840000
vt 0.390000 0.840000
vt 0.390000 0.840000
vt 0.390000 0.840000
vt 0.390000 0.840000
vt 0.390000 0.840000
vt 0.390000 0.840000
vt 0.390000 0.840000
vt 0.390000 0.840000
vt 0.390000 0.840000
vt 0.390000 0.840000
vt 0.390000 0.840000
vt 0.390000 0.840000
vt 0.390000 0.840000
vt 0.390000 0.840000
vt 0.390000 0.840000
vn 0.0000 1.0000 0.0000
vn 0.0000 -0.8391 -0.5439
vn -1.0000 0.0000 0.0000
vn -0.8391 0.0000 0.5439
vn 1.0000 0.0000 0.0000
vn 0.0000 -1.0000 0.0000
vn -0.8391 0.0000 -0.5439
vn 0.0000 -0.8391 0.5439
vn 0.8391 0.0000 0.5439
vn 0.8391 0.0000 -0.5439
vn -0.8335 0.0000 -0.5525
vn -0.2595 -0.0000 -0.9658
vn -0.8335 0.0000 0.5525
vn -0.2595 -0.0000 0.9658
vn 0.0000 0.8335 0.5525
vn 0.0000 -0.2858 0.9583
vn 0.0000 0.2595 -0.9658
vn 0.2595 -0.0000 0.9658
vn 0.8335 0.0000 -0.5525
vn 0.0000 -0.2858 -0.9583
vn 0.2595 -0.0000 -0.9658
vn 0.8335 0.0000 0.5525
vn 0.0000 0.2595 0.9658
vn 0.0000 0.8335 -0.5525
vn -0.2858 0.0000 -0.9583
vn 0.2858 0.0000 -0.9583
vn 0.2858 0.0000 0.9583
vn -0.2858 0.0000 0.9583
vn -0.0102 0.0000 0.9999
vn -0.0102 0.0000 -0.9999
vn 0.0000 -0.0102 0.9999
vn 0.0102 0.0000 0.9999
vn 0.0102 0.0000 -0.9999
vn 0.0000 -0.0102 -0.9999
usemtl Base
s off
f 36/1/1 48/2/1 54/3/1 58/4/1
f 23/5/2 11/6/2 16/7/2 22/8/2
f 2/9/3 4/10/3 3/11/3 1/12/3
f 17/13/4 14/14/4 13/15/4 20/16/4
f 10/17/5 9/18/5 12/19/5 11/6/5
f 14/14/3 15/20/3 16/7/3 13/15/3
f 13/15/6 16/7/6 11/6/6 12/19/6
f 22/8/7 16/7/7 15/20/7 30/21/7
f 20/16/8 13/15/8 12/19/8 32/22/8
f 32/22/9 12/19/9 9/18/9 27/23/9
f 26/24/10 10/17/10 11/6/10 23/5/10
f 6/25/1 8/26/1 4/10/1 2/9/1
f 5/27/5 7/28/5 8/26/5 6/25/5
f 1/12/11 25/29/11 24/30/11 2/9/11
f 38/31/5 46/32/5 60/33/5 64/34/5
f 25/29/12 41/35/12 40/36/12 24/30/12
f 4/10/13 31/37/13 28/38/13 3/11/13
f 31/37/14 47/39/14 44/40/14 28/38/14
f 8/26/15 19/41/15 31/37/15 4/10/15
f 36/1/16 20/16/16 32/22/16 48/2/16
f 24/30/17 40/36/17 37/42/17 21/43/17
f 18/44/18 34/45/18 35/46/18 19/41/18
f 6/25/19 21/43/19 29/47/19 5/27/19
f 39/48/20 23/5/20 22/8/20 38/31/20
f 21/43/21 37/42/21 45/49/21 29/47/21
f 7/28/22 18/44/22 19/41/22 8/26/22
f 19/41/23 35/46/23 47/39/23 31/37/23
f 2/9/24 24/30/24 21/43/24 6/25/24
f 38/31/25 22/8/25 30/21/25 46/32/25
f 42/50/26 26/24/26 23/5/26 39/48/26
f 42/50/3 39/48/3 51/51/3 50/52/3
f 48/2/27 32/22/27 27/23/27 43/53/27
f 44/40/5 47/39/5 53/54/5 56/55/5
f 37/42/6 40/36/6 52/56/6 63/57/6
f 49/58/1 41/59/1 25/60/1 1/61/1
f 39/48/1 38/31/1 64/34/1 51/51/1
f 48/2/3 43/53/3 55/62/3 54/3/3
f 33/63/28 17/13/28 20/16/28 36/1/28
f 45/49/3 37/42/3 63/57/3 59/64/3
f 47/39/6 35/46/6 57/65/6 53/54/6
f 40/36/5 41/35/5 49/66/5 52/56/5
f 33/63/5 36/1/5 58/4/5 61/67/5
f 35/46/3 34/45/3 62/68/3 57/65/3
f 10/69/1 26/70/1 42/71/1 50/72/1
f 55/73/1 50/72/1 49/58/1 56/74/1
f 55/73/1 43/75/1 27/76/1 9/77/1
f 3/78/1 28/79/1 44/80/1 56/74/1
f 1/61/1 3/78/1 56/74/1 49/58/1
f 50/72/1 55/73/1 9/77/1 10/69/1
f 59/81/1 60/82/1 61/83/1 62/84/1
f 5/85/1 29/86/1 45/87/1 59/81/1
f 7/88/1 5/85/1 59/81/1 62/84/1
f 18/89/1 7/88/1 62/84/1 34/90/1
f 60/82/1 46/91/1 30/92/1 15/93/1
f 61/83/1 60/82/1 15/93/1 14/94/1
f 33/95/1 61/83/1 14/94/1 17/96/1
usemtl Glow
f 61/97/29 58/98/29 57/99/29 62/100/29
f 64/101/30 60/102/30 59/103/30 63/104/30
f 58/98/31 54/105/31 53/106/31 57/99/31
f 54/105/32 55/107/32 56/108/32 53/106/32
f 50/109/33 51/110/33 52/111/33 49/112/33
f 51/110/34 64/101/34 63/104/34 52/111/34
