# Blender v2.80 (sub 75) OBJ File: 'MuralNeon002.blend'
# www.blender.org
mtllib MuralNeon002.mtl
o MuralNeon002_Cube.002
v -0.220718 3.259021 -3.222401
v 0.220717 3.259021 -3.222401
v -0.220718 3.259021 -5.222401
v 0.220717 3.259021 -5.222401
v -0.220717 -3.184185 -3.222401
v 0.220718 -3.184185 -3.222401
v -0.220717 -3.184185 -5.222401
v 0.220718 -3.184185 -5.222401
v -0.220718 3.259022 -4.316264
v -0.220718 3.259022 -4.128538
v 0.220717 3.259022 -4.128538
v 0.220717 3.259022 -4.316264
v -0.220717 -3.184185 -4.128538
v -0.220717 -3.184185 -4.316264
v 0.220718 -3.184185 -4.316264
v 0.220718 -3.184185 -4.128538
v 0.220717 3.037561 -4.405402
v 0.220717 3.037561 -5.133263
v 0.220718 -2.962725 -5.133263
v 0.220718 -2.962725 -4.039400
v 0.220718 -2.962725 -3.311539
v 0.220717 3.037561 -3.311539
v 0.220717 3.037561 -4.039400
v 0.220718 -2.962725 -4.405402
v -0.050079 3.037561 -4.405402
v -0.050079 3.037561 -5.133263
v -0.050079 -2.962725 -5.133263
v -0.050079 -2.962725 -4.039400
v -0.050079 -2.962725 -3.311539
v -0.050079 3.037561 -3.311539
v -0.050079 3.037561 -4.039400
v -0.050079 -2.962725 -4.405402
v 0.220717 3.259021 -4.769333
v -0.220717 -3.184185 -4.769333
v -0.220718 3.259021 -4.769333
v 0.220718 -3.184185 -4.769333
v 0.220717 3.037561 -4.769333
v 0.220718 -2.962725 -4.769333
v 0.112573 3.037561 -4.866040
v 0.112573 -2.962725 -4.866040
v -0.220718 3.259021 -3.675470
v 0.220718 -3.184185 -3.675470
v 0.220717 3.259021 -3.675470
v -0.220717 -3.184185 -3.675470
v 0.220718 -2.962725 -3.675470
v 0.220717 3.037561 -3.675470
v 0.112573 -2.962725 -3.578762
v 0.112573 3.037561 -3.578762
vt 0.044755 0.775608
vt 0.044755 0.775608
vt 0.044755 0.775608
vt 0.044755 0.775608
vt 0.044755 0.775608
vt 0.044755 0.775608
vt 0.044755 0.775608
vt 0.044755 0.775608
vt 0.044755 0.775608
vt 0.044755 0.775608
vt 0.044755 0.775608
vt 0.044755 0.775608
vt 0.044755 0.775608
vt 0.044755 0.775608
vt 0.044755 0.775608
vt 0.044755 0.775608
vt 0.044755 0.775608
vt 0.044755 0.775608
vt 0.044755 0.775608
vt 0.044755 0.775608
vt 0.044755 0.775608
vt 0.044755 0.775608
vt 0.044755 0.775608
vt 0.044755 0.775608
vt 0.044755 0.775608
vt 0.044755 0.775608
vt 0.044755 0.775608
vt 0.044755 0.775608
vt 0.044755 0.775608
vt 0.044755 0.775608
vt 0.044755 0.775608
vt 0.044755 0.775608
vt 0.044755 0.775608
vt 0.044755 0.775608
vt 0.044755 0.775608
vt 0.044755 0.775608
vt 0.044755 0.775608
vt 0.044755 0.775608
vt 0.044755 0.775608
vt 0.044755 0.775608
vt 0.044755 0.775608
vt 0.044755 0.775608
vt 0.044755 0.775608
vt 0.044755 0.775608
vt 0.044755 0.775608
vt 0.044755 0.775608
vt 0.044755 0.775608
vt 0.044755 0.775608
vt 0.346432 0.664373
vt 0.346432 0.664373
vt 0.346432 0.664373
vt 0.346432 0.664373
vt 0.346432 0.664373
vt 0.346432 0.664373
vt 0.346432 0.664373
vt 0.346432 0.664373
vt 0.346432 0.664373
vt 0.346432 0.664373
vt 0.346432 0.664373
vt 0.346432 0.664373
vn 0.0000 1.0000 0.0000
vn 0.0000 0.0000 -1.0000
vn 0.0000 -1.0000 0.0000
vn 0.0000 0.0000 1.0000
vn -1.0000 -0.0000 0.0000
vn 1.0000 0.0000 0.0000
vn 0.8542 0.0000 0.5199
vn 0.9429 0.0000 0.3330
vn 0.8542 0.0000 -0.5199
vn 0.9429 0.0000 -0.3330
usemtl Base
s off
f 35/1/1 33/2/1 4/3/1 3/4/1
f 3/4/2 4/3/2 8/5/2 7/6/2
f 44/7/3 42/8/3 6/9/3 5/10/3
f 5/10/4 6/9/4 2/11/4 1/12/4
f 41/13/5 44/7/5 5/10/5 1/12/5
f 12/14/6 15/15/6 24/16/6 17/17/6
f 2/11/6 6/9/6 21/18/6 22/19/6
f 15/15/6 12/14/6 11/20/6 16/21/6
f 35/1/5 34/22/5 14/23/5 9/24/5
f 9/24/5 14/23/5 13/25/5 10/26/5
f 34/22/3 36/27/3 15/15/3 14/23/3
f 14/23/3 15/15/3 16/21/3 13/25/3
f 41/13/1 43/28/1 11/20/1 10/26/1
f 10/26/1 11/20/1 12/14/1 9/24/1
f 22/19/2 21/18/2 29/29/2 30/30/2
f 38/31/1 19/32/1 27/33/1 40/34/1
f 36/27/6 8/5/6 19/32/6 38/31/6
f 8/5/6 4/3/6 18/35/6 19/32/6
f 43/28/6 2/11/6 22/19/6 46/36/6
f 16/21/6 11/20/6 23/37/6 20/38/6
f 42/8/6 16/21/6 20/38/6 45/39/6
f 33/2/6 12/14/6 17/17/6 37/40/6
f 19/32/4 18/35/4 26/41/4 27/33/4
f 17/17/2 24/16/2 32/42/2 25/43/2
f 46/36/3 22/19/3 30/30/3 48/44/3
f 45/39/1 20/38/1 28/45/1 47/46/1
f 37/40/3 17/17/3 25/43/3 39/47/3
f 20/38/4 23/37/4 31/48/4 28/45/4
f 18/35/3 37/40/3 39/47/3 26/41/3
f 4/3/6 33/2/6 37/40/6 18/35/6
f 15/15/6 36/27/6 38/31/6 24/16/6
f 24/16/1 38/31/1 40/34/1 32/42/1
f 7/6/3 8/5/3 36/27/3 34/22/3
f 3/4/5 7/6/5 34/22/5 35/1/5
f 9/24/1 12/14/1 33/2/1 35/1/1
f 21/18/1 45/39/1 47/46/1 29/29/1
f 23/37/3 46/36/3 48/44/3 31/48/3
f 6/9/6 42/8/6 45/39/6 21/18/6
f 11/20/6 43/28/6 46/36/6 23/37/6
f 1/12/1 2/11/1 43/28/1 41/13/1
f 10/26/5 13/25/5 44/7/5 41/13/5
f 13/25/3 16/21/3 42/8/3 44/7/3
usemtl Glow
f 47/49/7 48/50/7 30/51/7 29/52/7
f 40/53/8 39/54/8 25/55/8 32/56/8
f 27/57/9 26/58/9 39/54/9 40/53/9
f 28/59/10 31/60/10 48/50/10 47/49/10
