# Blender v2.80 (sub 75) OBJ File: 'PlafondNeon001.blend'
# www.blender.org
mtllib PlafondNeon001.mtl
o PlafondNeon001_Circle.001
v -0.085773 0.078940 -0.149457
v -0.136936 0.078940 -0.119918
v -0.136936 0.078940 0.119918
v -0.085773 0.078940 0.149457
v 0.121931 0.078940 0.029539
v 0.121931 0.078940 -0.029539
v -0.418143 2.749577 -1.101448
v -0.795200 2.749577 -0.883754
v -0.795200 2.749577 0.883754
v -0.418142 2.749577 1.101448
v 1.112564 2.749577 0.217694
v 1.112564 2.749577 -0.217694
v -0.348753 3.065281 -0.902699
v -0.657773 3.065281 -0.724286
v -0.657773 3.065281 0.724286
v -0.348753 3.065281 0.902699
v 0.905747 3.065281 0.178412
v 0.905747 3.065281 -0.178413
v -0.083868 0.021927 -0.058339
v -0.058978 0.021927 -0.072709
v -0.083868 0.021927 0.058339
v -0.058978 0.021927 0.072709
v 0.042068 0.021927 0.014371
v 0.042068 0.021927 -0.014371
v -0.322008 0.194182 -0.449778
v -0.278904 0.194182 -0.474663
v -0.278904 0.194182 0.474663
v -0.322008 0.194182 0.449778
v 0.500134 0.194182 -0.024886
v 0.500134 0.194182 0.024886
v -0.876570 2.559511 -1.093281
v -0.558913 2.559511 -1.276680
v -0.558913 2.559511 1.276680
v -0.876570 2.559511 1.093281
v 1.334705 2.559511 -0.183399
v 1.334705 2.559511 0.183399
vt 0.042969 0.781250
vt 0.042969 0.781250
vt 0.042969 0.781250
vt 0.042969 0.781250
vt 0.042969 0.781250
vt 0.042969 0.781250
vt 0.042969 0.781250
vt 0.042969 0.781250
vt 0.042969 0.781250
vt 0.042969 0.781250
vt 0.042969 0.781250
vt 0.042969 0.781250
vt 0.042969 0.781250
vt 0.042969 0.781250
vt 0.042969 0.781250
vt 0.042969 0.781250
vt 0.042969 0.781250
vt 0.042969 0.781250
vt 0.042969 0.781250
vt 0.042969 0.781250
vt 0.042969 0.781250
vt 0.042969 0.781250
vt 0.042969 0.781250
vt 0.042969 0.781250
vt 0.343750 0.671875
vt 0.343750 0.671875
vt 0.343750 0.671875
vt 0.343750 0.671875
vt 0.343750 0.671875
vt 0.343750 0.671875
vt 0.343750 0.671875
vt 0.343750 0.671875
vt 0.343750 0.671875
vt 0.343750 0.671875
vt 0.343750 0.671875
vt 0.343750 0.671875
vt 0.343750 0.671875
vt 0.343750 0.671875
vt 0.343750 0.671875
vt 0.343750 0.671875
vt 0.343750 0.671875
vt 0.343750 0.671875
vt 0.343750 0.671875
vt 0.343750 0.671875
vt 0.343750 0.671875
vt 0.343750 0.671875
vt 0.343750 0.671875
vt 0.343750 0.671875
vn 0.4855 -0.2393 -0.8409
vn 0.4855 -0.2393 0.8409
vn -0.9709 -0.2393 0.0000
vn 0.4584 0.3991 0.7941
vn -0.9169 0.3991 0.0000
vn 0.8365 0.5480 0.0000
vn -0.4182 0.5480 0.7244
vn -0.4182 0.5480 -0.7244
vn 0.4584 0.3991 -0.7941
vn 0.0000 1.0000 -0.0000
vn 0.3660 -0.6813 -0.6339
vn 0.0000 -1.0000 0.0000
vn 0.3660 -0.6813 0.6339
vn -0.7320 -0.6813 0.0000
vn 0.5810 -0.8139 0.0000
vn -0.2905 -0.8139 0.5032
vn -0.2905 -0.8139 -0.5032
vn -0.1457 -0.9566 -0.2524
vn -0.8882 -0.0879 -0.4509
vn 0.6501 0.7598 0.0000
vn 0.9430 -0.3327 0.0000
vn -0.4715 -0.3327 0.8167
vn -0.4715 -0.3327 -0.8167
vn 0.8346 -0.0879 0.5437
vn 0.2915 -0.9566 0.0000
vn -0.3251 0.7598 0.5630
vn 0.0536 -0.0879 0.9947
vn 0.0536 -0.0879 -0.9947
vn -0.1457 -0.9566 0.2524
vn -0.8882 -0.0879 0.4509
vn -0.3251 0.7598 -0.5630
vn 0.8346 -0.0879 -0.5437
usemtl Base
s off
f 6/1/1 1/2/1 7/3/1 12/4/1
f 4/5/2 5/6/2 11/7/2 10/8/2
f 2/9/3 3/10/3 9/11/3 8/12/3
f 10/8/4 11/7/4 17/13/4 16/14/4
f 8/12/5 9/11/5 15/15/5 14/16/5
f 11/7/6 12/4/6 18/17/6 17/13/6
f 9/11/7 10/8/7 16/14/7 15/15/7
f 7/3/8 8/12/8 14/16/8 13/18/8
f 12/4/9 7/3/9 13/18/9 18/17/9
f 14/16/10 15/15/10 16/14/10 17/13/10 18/17/10 13/18/10
f 1/2/11 6/1/11 24/19/11 20/20/11
f 19/21/12 20/20/12 24/19/12 23/22/12 22/23/12 21/24/12
f 5/6/13 4/5/13 22/23/13 23/22/13
f 3/10/14 2/9/14 19/21/14 21/24/14
f 6/1/15 5/6/15 23/22/15 24/19/15
f 4/5/16 3/10/16 21/24/16 22/23/16
f 2/9/17 1/2/17 20/20/17 19/21/17
usemtl Glow
f 1/25/18 2/26/18 25/27/18 26/28/18
f 9/29/19 3/30/19 28/31/19 34/32/19
f 12/33/20 11/34/20 36/35/20 35/36/20
f 30/37/21 29/38/21 35/36/21 36/35/21
f 28/31/22 27/39/22 33/40/22 34/32/22
f 26/28/23 25/27/23 31/41/23 32/42/23
f 4/43/24 10/44/24 33/40/24 27/39/24
f 5/45/25 6/46/25 29/38/25 30/37/25
f 10/44/26 9/29/26 34/32/26 33/40/26
f 11/34/27 5/45/27 30/37/27 36/35/27
f 6/46/28 12/33/28 35/36/28 29/38/28
f 3/30/29 4/43/29 27/39/29 28/31/29
f 2/26/30 8/47/30 31/41/30 25/27/30
f 8/47/31 7/48/31 32/42/31 31/41/31
f 7/48/32 1/25/32 26/28/32 32/42/32
