# Blender v2.80 (sub 75) OBJ File: 'PlafondNeon002.blend'
# www.blender.org
mtllib PlafondNeon003.mtl
o PlafondNeon003_Circle
v -0.164134 0.407486 -0.358072
v -0.199770 0.407486 -0.337497
v -0.199770 0.407486 0.337497
v -0.164133 0.407486 0.358072
v 0.420429 0.407486 0.020575
v 0.420429 0.407486 -0.020575
v -0.085903 2.886576 -0.300016
v -0.188607 2.886576 -0.240720
v -0.188607 2.886576 0.240720
v -0.085903 2.886576 0.300016
v 0.331035 2.886576 0.059296
v 0.331035 2.886576 -0.059296
v -0.067003 3.183991 -0.245880
v -0.151174 3.183991 -0.197283
v -0.151174 3.183991 0.197283
v -0.067003 3.183991 0.245880
v 0.274702 3.183991 0.048597
v 0.274702 3.183991 -0.048597
v -0.016176 0.264353 -0.040634
v 0.001161 0.264353 -0.050643
v -0.016176 0.264353 0.040634
v 0.001161 0.264353 0.050644
v 0.071541 0.264353 0.010009
v 0.071541 0.264353 -0.010009
v -0.045679 0.484764 0.097088
v -0.045679 0.484764 -0.097088
v 0.135183 0.484764 0.007333
v -0.032979 0.484764 0.104421
v -0.032979 0.484764 -0.104421
v 0.135183 0.484764 -0.007333
v -0.045679 2.774734 0.097088
v -0.045679 2.774734 -0.097088
v 0.135183 2.774734 0.007333
v -0.032979 2.774734 0.104421
v -0.045679 2.774734 -0.097088
v 0.135183 2.774734 0.007333
vt 0.042969 0.796875
vt 0.042969 0.796875
vt 0.042969 0.796875
vt 0.042969 0.796875
vt 0.042969 0.796875
vt 0.042969 0.796875
vt 0.042969 0.796875
vt 0.042969 0.796875
vt 0.042969 0.796875
vt 0.042969 0.796875
vt 0.042969 0.796875
vt 0.042969 0.796875
vt 0.042969 0.796875
vt 0.042969 0.796875
vt 0.046875 0.781250
vt 0.046875 0.781250
vt 0.046875 0.781250
vt 0.046875 0.781250
vt 0.046875 0.781250
vt 0.046875 0.781250
vt 0.046875 0.781250
vt 0.046875 0.781250
vt 0.046875 0.781250
vt 0.046875 0.781250
vt 0.046875 0.781250
vt 0.046875 0.781250
vt 0.042969 0.796875
vt 0.042969 0.796875
vt 0.042969 0.796875
vt 0.042969 0.796875
vt 0.343750 0.679688
vt 0.343750 0.679688
vt 0.343750 0.679688
vt 0.343750 0.679688
vt 0.343750 0.679688
vt 0.343750 0.679688
vt 0.343750 0.679688
vt 0.343750 0.679688
vt 0.343750 0.679688
vt 0.343750 0.679688
vt 0.343750 0.679688
vt 0.343750 0.679688
vt 0.343750 0.679688
vt 0.343750 0.679688
vt 0.343750 0.679688
vt 0.343750 0.679688
vt 0.343750 0.679688
vt 0.343750 0.679688
vt 0.343750 0.679688
vt 0.343750 0.679688
vt 0.343750 0.679688
vt 0.343750 0.679688
vt 0.343750 0.679688
vt 0.343750 0.679688
vt 0.343750 0.679688
vt 0.343750 0.679688
vt 0.343750 0.679688
vt 0.343750 0.679688
vt 0.343750 0.679688
vt 0.343750 0.679688
vn 0.3081 -0.7875 0.5337
vn 0.4961 0.1249 0.8592
vn -0.9922 0.1249 0.0000
vn 0.9825 0.1861 0.0000
vn -0.4913 0.1861 0.8509
vn -0.4913 0.1861 -0.8509
vn 0.4961 0.1249 -0.8592
vn 0.0000 1.0000 0.0000
vn 0.5000 0.0055 -0.8660
vn 0.5000 0.0000 0.8660
vn -1.0000 0.0000 0.0000
vn -0.6163 -0.7875 0.0000
vn 0.2918 -0.8121 -0.5054
vn 0.9360 -0.0080 -0.3519
vn -0.7914 -0.0105 0.6112
vn 0.9994 0.0360 0.0000
vn -0.4997 0.0360 0.8655
vn -0.4997 0.0360 -0.8655
vn 0.3074 -0.7886 -0.5325
vn 0.0000 -1.0000 0.0000
vn 0.3074 -0.7886 0.5325
vn -0.6148 -0.7886 0.0000
vn 0.3796 -0.9252 0.0000
vn -0.1898 -0.9252 0.3287
vn -0.1898 -0.9252 -0.3287
vn 0.2241 0.8939 0.3882
vn -0.7914 -0.0105 -0.6112
vn 0.9250 -0.0105 0.3798
vn -0.4483 0.8939 0.0000
vn -0.1336 -0.0105 0.9910
vn 0.2241 0.8939 -0.3882
vn -0.1632 -0.0080 -0.9866
usemtl Base
s off
f 11/1/1 10/2/1 34/3/1 33/4/1
f 10/2/2 11/1/2 17/5/2 16/6/2
f 8/7/3 9/8/3 15/9/3 14/10/3
f 11/1/4 12/11/4 18/12/4 17/5/4
f 9/8/5 10/2/5 16/6/5 15/9/5
f 7/13/6 8/7/6 14/10/6 13/14/6
f 12/11/7 7/13/7 13/14/7 18/12/7
f 14/10/8 15/9/8 16/6/8 17/5/8 18/12/8 13/14/8
f 30/15/9 29/16/9 35/17/9 36/18/9
f 28/19/10 27/20/10 33/21/10 34/22/10
f 26/23/11 25/24/11 31/25/11 32/26/11
f 9/8/12 8/7/12 32/27/12 31/28/12
f 7/13/13 12/11/13 36/29/13 35/30/13
usemtl Glow
f 1/31/14 7/32/14 35/33/14 29/34/14
f 8/35/15 2/36/15 26/37/15 32/38/15
f 5/39/16 6/40/16 12/41/16 11/42/16
f 3/43/17 4/44/17 10/45/17 9/46/17
f 1/31/18 2/36/18 8/35/18 7/32/18
f 1/31/19 6/40/19 24/47/19 20/48/19
f 19/49/20 20/48/20 24/47/20 23/50/20 22/51/20 21/52/20
f 5/39/21 4/44/21 22/51/21 23/50/21
f 3/43/22 2/36/22 19/49/22 21/52/22
f 6/40/23 5/39/23 23/50/23 24/47/23
f 4/44/24 3/43/24 21/52/24 22/51/24
f 2/36/25 1/31/25 20/48/25 19/49/25
f 4/44/26 5/39/26 27/53/26 28/54/26
f 3/43/27 9/46/27 31/55/27 25/56/27
f 10/45/28 4/44/28 28/54/28 34/57/28
f 2/36/29 3/43/29 25/56/29 26/37/29
f 5/39/30 11/42/30 33/58/30 27/53/30
f 6/40/31 1/31/31 29/34/31 30/59/31
f 12/41/32 6/40/32 30/59/32 36/60/32
