# Blender v2.93.4 OBJ File: ''
# www.blender.org
mtllib Repeater.mtl
o Repeater_Cylinder.001
v 0.000000 0.000000 -0.500000
v 0.000000 1.000000 -0.500000
v 0.097545 0.000000 -0.490393
v 0.097545 1.000000 -0.490393
v 0.191342 0.000000 -0.461940
v 0.191342 1.000000 -0.461940
v 0.277785 0.000000 -0.415735
v 0.277785 1.000000 -0.415735
v 0.353553 0.000000 -0.353553
v 0.353553 1.000000 -0.353553
v 0.415735 0.000000 -0.277785
v 0.415735 1.000000 -0.277785
v 0.461940 0.000000 -0.191342
v 0.461940 1.000000 -0.191342
v 0.490393 0.000000 -0.097545
v 0.490393 1.000000 -0.097545
v 0.500000 0.000000 0.000000
v 0.500000 1.000000 0.000000
v 0.490393 0.000000 0.097545
v 0.490393 1.000000 0.097545
v 0.461940 0.000000 0.191342
v 0.461940 1.000000 0.191342
v 0.415735 0.000000 0.277785
v 0.415735 1.000000 0.277785
v 0.353553 0.000000 0.353553
v 0.353553 1.000000 0.353553
v 0.277785 0.000000 0.415735
v 0.277785 1.000000 0.415735
v 0.191342 0.000000 0.461940
v 0.191342 1.000000 0.461940
v 0.097545 0.000000 0.490393
v 0.097545 1.000000 0.490393
v -0.000000 0.000000 0.500000
v -0.000000 1.000000 0.500000
v -0.097545 0.000000 0.490393
v -0.097545 1.000000 0.490393
v -0.191342 0.000000 0.461940
v -0.191342 1.000000 0.461940
v -0.277785 0.000000 0.415735
v -0.277785 1.000000 0.415735
v -0.353553 0.000000 0.353553
v -0.353553 1.000000 0.353553
v -0.415735 0.000000 0.277785
v -0.415735 1.000000 0.277785
v -0.461940 0.000000 0.191342
v -0.461940 1.000000 0.191342
v -0.490393 0.000000 0.097545
v -0.490393 1.000000 0.097545
v -0.500000 0.000000 0.000000
v -0.500000 1.000000 0.000000
v -0.490393 0.000000 -0.097545
v -0.490393 1.000000 -0.097545
v -0.461940 0.000000 -0.191342
v -0.461940 1.000000 -0.191342
v -0.415735 0.000000 -0.277785
v -0.415735 1.000000 -0.277785
v -0.353553 0.000000 -0.353553
v -0.353553 1.000000 -0.353553
v -0.277785 0.000000 -0.415735
v -0.277785 1.000000 -0.415735
v -0.191342 0.000000 -0.461940
v -0.191342 1.000000 -0.461940
v -0.097545 0.000000 -0.490393
v -0.097545 1.000000 -0.490393
v 0.048773 1.000000 -0.245196
v 0.000000 1.000000 -0.250000
v 0.095671 1.000000 -0.230970
v 0.138893 1.000000 -0.207867
v 0.176777 1.000000 -0.176777
v 0.207867 1.000000 -0.138893
v 0.230970 1.000000 -0.095671
v 0.245196 1.000000 -0.048773
v 0.250000 1.000000 0.000000
v 0.245196 1.000000 0.048773
v 0.230970 1.000000 0.095671
v 0.207868 1.000000 0.138893
v 0.176777 1.000000 0.176777
v 0.138893 1.000000 0.207867
v 0.095671 1.000000 0.230970
v 0.048773 1.000000 0.245196
v 0.000000 1.000000 0.250000
v -0.048772 1.000000 0.245196
v -0.095671 1.000000 0.230970
v -0.138892 1.000000 0.207867
v -0.176777 1.000000 0.176777
v -0.207867 1.000000 0.138893
v -0.230970 1.000000 0.095671
v -0.245196 1.000000 0.048773
v -0.250000 1.000000 0.000000
v -0.245196 1.000000 -0.048773
v -0.230970 1.000000 -0.095671
v -0.207867 1.000000 -0.138892
v -0.176777 1.000000 -0.176777
v -0.138892 1.000000 -0.207867
v -0.095671 1.000000 -0.230970
v -0.048772 1.000000 -0.245196
v 0.048773 5.000000 -0.245196
v 0.000001 5.000000 -0.250000
v 0.095672 5.000000 -0.230970
v 0.138893 5.000000 -0.207867
v 0.176777 5.000000 -0.176777
v 0.207868 5.000000 -0.138893
v 0.230971 5.000000 -0.095671
v 0.245197 5.000000 -0.048773
v 0.250001 5.000000 0.000000
v 0.245197 5.000000 0.048773
v 0.230971 5.000000 0.095671
v 0.207868 5.000000 0.138893
v 0.176777 5.000000 0.176777
v 0.138893 5.000000 0.207867
v 0.095672 5.000000 0.230970
v 0.048773 5.000000 0.245196
v 0.000001 5.000000 0.250000
v -0.048772 5.000000 0.245196
v -0.095670 5.000000 0.230970
v -0.138892 5.000000 0.207867
v -0.176776 5.000000 0.176777
v -0.207867 5.000000 0.138893
v -0.230969 5.000000 0.095671
v -0.245196 5.000000 0.048773
v -0.249999 5.000000 0.000000
v -0.245196 5.000000 -0.048773
v -0.230969 5.000000 -0.095671
v -0.207867 5.000000 -0.138892
v -0.176776 5.000000 -0.176777
v -0.138892 5.000000 -0.207867
v -0.095670 5.000000 -0.230970
v -0.048772 5.000000 -0.245196
v -0.000000 4.500000 -0.000000
v 0.361804 4.776390 0.262863
v -0.138194 4.776390 0.425325
v -0.447213 4.776392 -0.000000
v -0.138194 4.776390 -0.425325
v 0.361804 4.776390 -0.262863
v 0.138194 5.223610 0.425325
v -0.361804 5.223610 0.262863
v -0.361804 5.223610 -0.262863
v 0.138194 5.223610 -0.425325
v 0.447213 5.223608 -0.000000
v -0.000000 5.500000 -0.000000
v -0.081228 4.574673 0.249998
v 0.212661 4.574673 0.154506
v 0.131434 4.737131 0.404506
v 0.425324 4.737132 -0.000000
v 0.212661 4.574673 -0.154506
v -0.262865 4.574674 -0.000000
v -0.344095 4.737132 0.249998
v -0.081228 4.574673 -0.249998
v -0.344095 4.737132 -0.249998
v 0.131434 4.737131 -0.404506
v 0.475529 5.000000 0.154506
v 0.475529 5.000000 -0.154506
v -0.000000 5.000000 0.500000
v 0.293893 5.000000 0.404508
v -0.475529 5.000000 0.154506
v -0.293893 5.000000 0.404508
v -0.293893 5.000000 -0.404508
v -0.475529 5.000000 -0.154506
v 0.293893 5.000000 -0.404508
v -0.000000 5.000000 -0.500000
v 0.344095 5.262868 0.249998
v -0.131434 5.262869 0.404506
v -0.425324 5.262868 -0.000000
v -0.131434 5.262869 -0.404506
v 0.344095 5.262868 -0.249998
v 0.081228 5.425327 0.249998
v 0.262865 5.425326 -0.000000
v -0.212661 5.425327 0.154506
v -0.212661 5.425327 -0.154506
v 0.081228 5.425327 -0.249998
vt 1.000000 0.500000
vt 1.000000 1.000000
vt 0.968750 1.000000
vt 0.968750 0.500000
vt 0.937500 1.000000
vt 0.937500 0.500000
vt 0.906250 1.000000
vt 0.906250 0.500000
vt 0.875000 1.000000
vt 0.875000 0.500000
vt 0.843750 1.000000
vt 0.843750 0.500000
vt 0.812500 1.000000
vt 0.812500 0.500000
vt 0.781250 1.000000
vt 0.781250 0.500000
vt 0.750000 1.000000
vt 0.750000 0.500000
vt 0.718750 1.000000
vt 0.718750 0.500000
vt 0.687500 1.000000
vt 0.687500 0.500000
vt 0.656250 1.000000
vt 0.656250 0.500000
vt 0.625000 1.000000
vt 0.625000 0.500000
vt 0.593750 1.000000
vt 0.593750 0.500000
vt 0.562500 1.000000
vt 0.562500 0.500000
vt 0.531250 1.000000
vt 0.531250 0.500000
vt 0.500000 1.000000
vt 0.500000 0.500000
vt 0.468750 1.000000
vt 0.468750 0.500000
vt 0.437500 1.000000
vt 0.437500 0.500000
vt 0.406250 1.000000
vt 0.406250 0.500000
vt 0.375000 1.000000
vt 0.375000 0.500000
vt 0.343750 1.000000
vt 0.343750 0.500000
vt 0.312500 1.000000
vt 0.312500 0.500000
vt 0.281250 1.000000
vt 0.281250 0.500000
vt 0.250000 1.000000
vt 0.250000 0.500000
vt 0.218750 1.000000
vt 0.218750 0.500000
vt 0.187500 1.000000
vt 0.187500 0.500000
vt 0.156250 1.000000
vt 0.156250 0.500000
vt 0.125000 1.000000
vt 0.125000 0.500000
vt 0.093750 1.000000
vt 0.093750 0.500000
vt 0.062500 1.000000
vt 0.062500 0.500000
vt 0.843750 1.000000
vt 0.812500 1.000000
vt 0.031250 1.000000
vt 0.031250 0.500000
vt 0.000000 1.000000
vt 0.000000 0.500000
vt 0.750000 0.490000
vt 0.796822 0.485388
vt 0.841844 0.471731
vt 0.883337 0.449553
vt 0.919706 0.419706
vt 0.949553 0.383337
vt 0.971731 0.341844
vt 0.985388 0.296822
vt 0.990000 0.250000
vt 0.985388 0.203178
vt 0.971731 0.158156
vt 0.949553 0.116663
vt 0.919706 0.080294
vt 0.883337 0.050447
vt 0.841844 0.028269
vt 0.796822 0.014612
vt 0.750000 0.010000
vt 0.703178 0.014612
vt 0.658156 0.028269
vt 0.616663 0.050447
vt 0.580294 0.080294
vt 0.550447 0.116663
vt 0.528269 0.158156
vt 0.514612 0.203178
vt 0.510000 0.250000
vt 0.514612 0.296822
vt 0.528269 0.341844
vt 0.550447 0.383337
vt 0.580294 0.419706
vt 0.616663 0.449553
vt 0.658156 0.471731
vt 0.703178 0.485388
vt 0.093750 1.000000
vt 0.125000 1.000000
vt 0.125000 1.000000
vt 0.093750 1.000000
vt 0.562500 1.000000
vt 0.531250 1.000000
vt 0.281250 1.000000
vt 0.250000 1.000000
vt 0.968750 1.000000
vt 0.937500 1.000000
vt 0.687500 1.000000
vt 0.656250 1.000000
vt 0.406250 1.000000
vt 0.375000 1.000000
vt 0.781250 1.000000
vt 0.500000 1.000000
vt 0.218750 1.000000
vt 0.906250 1.000000
vt 0.625000 1.000000
vt 0.343750 1.000000
vt 0.062500 1.000000
vt 0.750000 1.000000
vt 0.468750 1.000000
vt 0.187500 1.000000
vt 0.875000 1.000000
vt 0.593750 1.000000
vt 0.312500 1.000000
vt 0.031250 1.000000
vt 0.718750 1.000000
vt 0.437500 1.000000
vt 0.156250 1.000000
vt 1.000000 1.000000
vt 0.000000 1.000000
vt 0.531250 1.000000
vt 0.500000 1.000000
vt 0.937500 1.000000
vt 0.906250 1.000000
vt 0.062500 1.000000
vt 0.468750 1.000000
vt 0.875000 1.000000
vt 0.031250 1.000000
vt 0.437500 1.000000
vt 0.843750 1.000000
vt 0.000000 1.000000
vt 0.406250 1.000000
vt 0.812500 1.000000
vt 0.375000 1.000000
vt 0.781250 1.000000
vt 0.343750 1.000000
vt 0.750000 1.000000
vt 0.312500 1.000000
vt 0.718750 1.000000
vt 0.281250 1.000000
vt 0.687500 1.000000
vt 0.250000 1.000000
vt 0.656250 1.000000
vt 0.218750 1.000000
vt 0.625000 1.000000
vt 0.187500 1.000000
vt 0.593750 1.000000
vt 0.156250 1.000000
vt 0.562500 1.000000
vt 1.000000 1.000000
vt 0.968750 1.000000
vt 0.181819 0.000000
vt 0.227273 0.078731
vt 0.136365 0.078731
vt 0.272728 0.157461
vt 0.318182 0.078731
vt 0.363637 0.157461
vt 0.909091 0.000000
vt 0.954545 0.078731
vt 0.863636 0.078731
vt 0.727273 0.000000
vt 0.772727 0.078731
vt 0.681818 0.078731
vt 0.545455 0.000000
vt 0.590909 0.078731
vt 0.500000 0.078731
vt 0.318182 0.236191
vt 0.090910 0.157461
vt 0.181819 0.157461
vt 0.136365 0.236191
vt 0.818182 0.157461
vt 0.909091 0.157461
vt 0.863636 0.236191
vt 0.636364 0.157461
vt 0.727273 0.157461
vt 0.681818 0.236191
vt 0.454546 0.157461
vt 0.545455 0.157461
vt 0.500000 0.236191
vt 0.227273 0.236191
vt 0.045455 0.236191
vt 0.772727 0.236191
vt 0.590909 0.236191
vt 0.409092 0.236191
vt 0.181819 0.314921
vt 0.272728 0.314921
vt 0.227273 0.393651
vt 0.000000 0.314921
vt 0.090910 0.314921
vt 0.045455 0.393651
vt 0.727273 0.314921
vt 0.818182 0.314921
vt 0.772727 0.393651
vt 0.545455 0.314921
vt 0.636364 0.314921
vt 0.590909 0.393651
vt 0.363637 0.314921
vt 0.454546 0.314921
vt 0.409092 0.393651
vt 0.500000 0.393651
vt 0.454546 0.472382
vt 0.681818 0.393651
vt 0.636364 0.472382
vt 0.863636 0.393651
vt 0.818182 0.472382
vt 0.909091 0.314921
vt 0.136365 0.393651
vt 0.090910 0.472382
vt 0.318182 0.393651
vt 0.272728 0.472382
vt 0.954545 0.236191
vt 1.000000 0.157461
vt 0.409092 0.078731
vt 0.363637 0.000000
vn 0.0980 0.0000 -0.9952
vn 0.2903 0.0000 -0.9569
vn 0.4714 0.0000 -0.8819
vn 0.6344 0.0000 -0.7730
vn 0.7730 0.0000 -0.6344
vn 0.8819 0.0000 -0.4714
vn 0.9569 0.0000 -0.2903
vn 0.9952 0.0000 -0.0980
vn 0.9952 0.0000 0.0980
vn 0.9569 0.0000 0.2903
vn 0.8819 0.0000 0.4714
vn 0.7730 0.0000 0.6344
vn 0.6344 0.0000 0.7730
vn 0.4714 0.0000 0.8819
vn 0.2903 0.0000 0.9569
vn 0.0980 0.0000 0.9952
vn -0.0980 0.0000 0.9952
vn -0.2903 0.0000 0.9569
vn -0.4714 0.0000 0.8819
vn -0.6344 0.0000 0.7730
vn -0.7730 0.0000 0.6344
vn -0.8819 0.0000 0.4714
vn -0.9569 0.0000 0.2903
vn -0.9952 0.0000 0.0980
vn -0.9952 0.0000 -0.0980
vn -0.9569 0.0000 -0.2903
vn -0.8819 0.0000 -0.4714
vn -0.7730 0.0000 -0.6344
vn -0.6344 0.0000 -0.7730
vn -0.4714 0.0000 -0.8819
vn 0.0000 1.0000 0.0000
vn -0.2903 0.0000 -0.9569
vn -0.0980 0.0000 -0.9952
vn 0.0000 -1.0000 0.0000
vn 0.1024 -0.9435 0.3151
vn 0.7002 -0.6617 0.2680
vn -0.2680 -0.9435 0.1947
vn -0.2680 -0.9435 -0.1947
vn 0.1024 -0.9435 -0.3151
vn 0.9050 -0.3304 0.2680
vn 0.0247 -0.3304 0.9435
vn -0.8897 -0.3304 0.3151
vn -0.5746 -0.3304 -0.7488
vn 0.5346 -0.3304 -0.7779
vn 0.8026 -0.1256 0.5831
vn -0.3066 -0.1256 0.9435
vn -0.9921 -0.1256 0.0000
vn -0.3066 -0.1256 -0.9435
vn 0.8026 -0.1256 -0.5831
vn 0.4089 0.6617 0.6284
vn -0.4713 0.6617 0.5831
vn -0.7002 0.6617 -0.2680
vn 0.0385 0.6617 -0.7488
vn 0.7240 0.6617 -0.1947
vn 0.2680 0.9435 -0.1947
vn 0.4911 0.7947 -0.3568
vn 0.4089 0.6617 -0.6284
vn -0.1024 0.9435 -0.3151
vn -0.1876 0.7947 -0.5773
vn -0.4713 0.6617 -0.5831
vn -0.3313 0.9435 0.0000
vn -0.6071 0.7947 0.0000
vn -0.7002 0.6617 0.2680
vn -0.1024 0.9435 0.3151
vn -0.1876 0.7947 0.5773
vn 0.0385 0.6617 0.7488
vn 0.2680 0.9435 0.1947
vn 0.4911 0.7947 0.3568
vn 0.7240 0.6617 0.1947
vn 0.8897 0.3304 -0.3151
vn 0.7947 0.1876 -0.5773
vn 0.5746 0.3304 -0.7488
vn -0.0247 0.3304 -0.9435
vn -0.3035 0.1876 -0.9342
vn -0.5346 0.3304 -0.7779
vn -0.9050 0.3304 -0.2680
vn -0.9822 0.1876 0.0000
vn -0.9050 0.3304 0.2680
vn -0.5346 0.3304 0.7779
vn -0.3035 0.1876 0.9342
vn -0.0247 0.3304 0.9435
vn 0.5746 0.3304 0.7488
vn 0.7947 0.1876 0.5773
vn 0.8897 0.3304 0.3151
vn 0.3066 0.1256 -0.9435
vn 0.3035 -0.1876 -0.9342
vn 0.0247 -0.3304 -0.9435
vn -0.8026 0.1256 -0.5831
vn -0.7947 -0.1876 -0.5773
vn -0.8897 -0.3304 -0.3151
vn -0.8026 0.1256 0.5831
vn -0.7947 -0.1876 0.5773
vn -0.5746 -0.3304 0.7488
vn 0.3066 0.1256 0.9435
vn 0.3035 -0.1876 0.9342
vn 0.5346 -0.3304 0.7779
vn 0.9921 0.1256 0.0000
vn 0.9822 -0.1876 0.0000
vn 0.9050 -0.3304 -0.2680
vn 0.4713 -0.6617 -0.5831
vn 0.1876 -0.7947 -0.5773
vn -0.0385 -0.6617 -0.7488
vn -0.4089 -0.6617 -0.6284
vn -0.4911 -0.7947 -0.3568
vn -0.7240 -0.6617 -0.1947
vn -0.7240 -0.6617 0.1947
vn -0.4911 -0.7947 0.3568
vn -0.4089 -0.6617 0.6284
vn 0.7002 -0.6617 -0.2680
vn 0.6071 -0.7947 0.0000
vn 0.3313 -0.9435 0.0000
vn -0.0385 -0.6617 0.7488
vn 0.1876 -0.7947 0.5773
vn 0.4713 -0.6617 0.5831
usemtl None
s off
f 1/1/1 2/2/1 4/3/1 3/4/1
f 3/4/2 4/3/2 6/5/2 5/6/2
f 5/6/3 6/5/3 8/7/3 7/8/3
f 7/8/4 8/7/4 10/9/4 9/10/4
f 9/10/5 10/9/5 12/11/5 11/12/5
f 11/12/6 12/11/6 14/13/6 13/14/6
f 13/14/7 14/13/7 16/15/7 15/16/7
f 15/16/8 16/15/8 18/17/8 17/18/8
f 17/18/9 18/17/9 20/19/9 19/20/9
f 19/20/10 20/19/10 22/21/10 21/22/10
f 21/22/11 22/21/11 24/23/11 23/24/11
f 23/24/12 24/23/12 26/25/12 25/26/12
f 25/26/13 26/25/13 28/27/13 27/28/13
f 27/28/14 28/27/14 30/29/14 29/30/14
f 29/30/15 30/29/15 32/31/15 31/32/15
f 31/32/16 32/31/16 34/33/16 33/34/16
f 33/34/17 34/33/17 36/35/17 35/36/17
f 35/36/18 36/35/18 38/37/18 37/38/18
f 37/38/19 38/37/19 40/39/19 39/40/19
f 39/40/20 40/39/20 42/41/20 41/42/20
f 41/42/21 42/41/21 44/43/21 43/44/21
f 43/44/22 44/43/22 46/45/22 45/46/22
f 45/46/23 46/45/23 48/47/23 47/48/23
f 47/48/24 48/47/24 50/49/24 49/50/24
f 49/50/25 50/49/25 52/51/25 51/52/25
f 51/52/26 52/51/26 54/53/26 53/54/26
f 53/54/27 54/53/27 56/55/27 55/56/27
f 55/56/28 56/55/28 58/57/28 57/58/28
f 57/58/29 58/57/29 60/59/29 59/60/29
f 59/60/30 60/59/30 62/61/30 61/62/30
f 14/13/31 12/11/31 70/63/31 71/64/31
f 61/62/32 62/61/32 64/65/32 63/66/32
f 63/66/33 64/65/33 2/67/33 1/68/33
f 1/69/34 3/70/34 5/71/34 7/72/34 9/73/34 11/74/34 13/75/34 15/76/34 17/77/34 19/78/34 21/79/34 23/80/34 25/81/34 27/82/34 29/83/34 31/84/34 33/85/34 35/86/34 37/87/34 39/88/34 41/89/34 43/90/34 45/91/34 47/92/34 49/93/34 51/94/34 53/95/34 55/96/34 57/97/34 59/98/34 61/99/34 63/100/34
f 94/101/29 93/102/29 125/103/29 126/104/29
f 32/31/31 30/29/31 79/105/31 80/106/31
f 50/49/31 48/47/31 88/107/31 89/108/31
f 6/5/31 4/3/31 65/109/31 67/110/31
f 24/23/31 22/21/31 75/111/31 76/112/31
f 42/41/31 40/39/31 84/113/31 85/114/31
f 60/59/31 58/57/31 93/102/31 94/101/31
f 16/15/31 14/13/31 71/64/31 72/115/31
f 34/33/31 32/31/31 80/106/31 81/116/31
f 52/51/31 50/49/31 89/108/31 90/117/31
f 8/7/31 6/5/31 67/110/31 68/118/31
f 26/25/31 24/23/31 76/112/31 77/119/31
f 44/43/31 42/41/31 85/114/31 86/120/31
f 62/61/31 60/59/31 94/101/31 95/121/31
f 18/17/31 16/15/31 72/115/31 73/122/31
f 36/35/31 34/33/31 81/116/31 82/123/31
f 54/53/31 52/51/31 90/117/31 91/124/31
f 10/9/31 8/7/31 68/118/31 69/125/31
f 28/27/31 26/25/31 77/119/31 78/126/31
f 46/45/31 44/43/31 86/120/31 87/127/31
f 64/65/31 62/61/31 95/121/31 96/128/31
f 20/19/31 18/17/31 73/122/31 74/129/31
f 38/37/31 36/35/31 82/123/31 83/130/31
f 56/55/31 54/53/31 91/124/31 92/131/31
f 12/11/31 10/9/31 69/125/31 70/63/31
f 30/29/31 28/27/31 78/126/31 79/105/31
f 48/47/31 46/45/31 87/127/31 88/107/31
f 4/3/31 2/2/31 66/132/31 65/109/31
f 2/67/31 64/65/31 96/128/31 66/133/31
f 22/21/31 20/19/31 74/129/31 75/111/31
f 40/39/31 38/37/31 83/130/31 84/113/31
f 58/57/31 56/55/31 92/131/31 93/102/31
f 81/116/16 80/106/16 112/134/16 113/135/16
f 68/118/3 67/110/3 99/136/3 100/137/3
f 95/121/30 94/101/30 126/104/30 127/138/30
f 82/123/17 81/116/17 113/135/17 114/139/17
f 69/125/4 68/118/4 100/137/4 101/140/4
f 96/128/32 95/121/32 127/138/32 128/141/32
f 83/130/18 82/123/18 114/139/18 115/142/18
f 70/63/5 69/125/5 101/140/5 102/143/5
f 66/133/33 96/128/33 128/141/33 98/144/33
f 84/113/19 83/130/19 115/142/19 116/145/19
f 71/64/6 70/63/6 102/143/6 103/146/6
f 85/114/20 84/113/20 116/145/20 117/147/20
f 72/115/7 71/64/7 103/146/7 104/148/7
f 86/120/21 85/114/21 117/147/21 118/149/21
f 73/122/8 72/115/8 104/148/8 105/150/8
f 87/127/22 86/120/22 118/149/22 119/151/22
f 74/129/9 73/122/9 105/150/9 106/152/9
f 88/107/23 87/127/23 119/151/23 120/153/23
f 75/111/10 74/129/10 106/152/10 107/154/10
f 89/108/24 88/107/24 120/153/24 121/155/24
f 76/112/11 75/111/11 107/154/11 108/156/11
f 90/117/25 89/108/25 121/155/25 122/157/25
f 77/119/12 76/112/12 108/156/12 109/158/12
f 91/124/26 90/117/26 122/157/26 123/159/26
f 78/126/13 77/119/13 109/158/13 110/160/13
f 92/131/27 91/124/27 123/159/27 124/161/27
f 79/105/14 78/126/14 110/160/14 111/162/14
f 65/109/1 66/132/1 98/163/1 97/164/1
f 93/102/28 92/131/28 124/161/28 125/103/28
f 80/106/15 79/105/15 111/162/15 112/134/15
f 67/110/2 65/109/2 97/164/2 99/136/2
f 129/165/35 142/166/35 141/167/35
f 130/168/36 142/169/36 144/170/36
f 129/171/37 141/172/37 146/173/37
f 129/174/38 146/175/38 148/176/38
f 129/177/39 148/178/39 145/179/39
f 130/168/40 144/170/40 151/180/40
f 131/181/41 143/182/41 153/183/41
f 132/184/42 147/185/42 155/186/42
f 133/187/43 149/188/43 157/189/43
f 134/190/44 150/191/44 159/192/44
f 130/168/45 151/180/45 154/193/45
f 131/181/46 153/183/46 156/194/46
f 132/184/47 155/186/47 158/195/47
f 133/187/48 157/189/48 160/196/48
f 134/190/49 159/192/49 152/197/49
f 135/198/50 161/199/50 166/200/50
f 136/201/51 162/202/51 168/203/51
f 137/204/52 163/205/52 169/206/52
f 138/207/53 164/208/53 170/209/53
f 139/210/54 165/211/54 167/212/54
f 167/212/55 170/213/55 140/214/55
f 167/212/56 165/211/56 170/213/56
f 165/211/57 138/207/57 170/213/57
f 170/209/58 169/215/58 140/216/58
f 170/209/59 164/208/59 169/215/59
f 164/208/60 137/204/60 169/215/60
f 169/206/61 168/217/61 140/218/61
f 169/206/62 163/205/62 168/217/62
f 163/205/63 136/219/63 168/217/63
f 168/203/64 166/220/64 140/221/64
f 168/203/65 162/202/65 166/220/65
f 162/202/66 135/198/66 166/220/66
f 166/200/67 167/222/67 140/223/67
f 166/200/68 161/199/68 167/222/68
f 161/199/69 139/210/69 167/222/69
f 152/197/70 165/211/70 139/210/70
f 152/197/71 159/192/71 165/211/71
f 159/192/72 138/207/72 165/211/72
f 160/196/73 164/208/73 138/207/73
f 160/196/74 157/189/74 164/208/74
f 157/189/75 137/204/75 164/208/75
f 158/195/76 163/205/76 137/204/76
f 158/195/77 155/186/77 163/205/77
f 155/186/78 136/219/78 163/205/78
f 156/194/79 162/202/79 136/201/79
f 156/194/80 153/183/80 162/202/80
f 153/183/81 135/198/81 162/202/81
f 154/193/82 161/199/82 135/198/82
f 154/193/83 151/180/83 161/199/83
f 151/180/84 139/210/84 161/199/84
f 159/192/85 160/196/85 138/207/85
f 159/192/86 150/191/86 160/196/86
f 150/191/87 133/187/87 160/196/87
f 157/189/88 158/195/88 137/204/88
f 157/189/89 149/188/89 158/195/89
f 149/188/90 132/184/90 158/195/90
f 155/186/91 156/224/91 136/219/91
f 155/186/92 147/185/92 156/224/92
f 147/185/93 131/225/93 156/224/93
f 153/183/94 154/193/94 135/198/94
f 153/183/95 143/182/95 154/193/95
f 143/182/96 130/168/96 154/193/96
f 151/180/97 152/197/97 139/210/97
f 151/180/98 144/170/98 152/197/98
f 144/170/99 134/190/99 152/197/99
f 145/179/100 150/191/100 134/190/100
f 145/179/101 148/178/101 150/191/101
f 148/178/102 133/187/102 150/191/102
f 148/176/103 149/188/103 133/187/103
f 148/176/104 146/175/104 149/188/104
f 146/175/105 132/184/105 149/188/105
f 146/173/106 147/185/106 132/184/106
f 146/173/107 141/172/107 147/185/107
f 141/172/108 131/225/108 147/185/108
f 144/170/109 145/226/109 134/190/109
f 144/170/110 142/169/110 145/226/110
f 142/169/111 129/227/111 145/226/111
f 141/167/112 143/182/112 131/181/112
f 141/167/113 142/166/113 143/182/113
f 142/166/114 130/168/114 143/182/114
